# xmcd
#
# Track frame offsets:
#	182
#	26555
#	46517
#	63182
#	78470
#	97665
#	110452
#	123322
#	140695
#	159745
#	177785
#	196087
#	222430
#	240072
#	259822
#	277152
#	291360
#
# Disc length: 4234 seconds
# Revision: 0
# Processed by: cddbd v1.5.2PL0 Copyright (c) Steve Scherf et al.
# Submitted via: dBpowerAMP V12.0
#
DISCID=e8108811
DTITLE=Boyz II Men - Cooleyhighharmony
DYEAR=1993
DGENRE=R&B
TTITLE0=Al Final del Camino (End of the Road, Spanish Version)
TTITLE1=Please Don't Go
TTITLE2=Lonely Heart
TTITLE3=This Is My Heart
TTITLE4=Uhh Ahh (Sequel Version)
TTITLE5=It's So Hard to Say Goodbye to Yesterday (Original Version)
TTITLE6=In the Still of the Night (I'll Remember)
TTITLE7=Motownphilly (Remix Radio Edit)
TTITLE8=Under Pressure
TTITLE9=Sympin (Remix Radio Edit)
TTITLE10=Little Things
TTITLE11=Your Love
TTITLE12=Motownphilly (Original Version)
TTITLE13=Sympin (Original Version)
TTITLE14=Uhh Ahh (Original Version)
TTITLE15=It's So Hard to Say Goodbye to Yesterday (Radio Version)
TTITLE16=End of the Road (LP Version)
EXTD=
EXTT0=
EXTT1=
EXTT2=
EXTT3=
EXTT4=
EXTT5=
EXTT6=
EXTT7=
EXTT8=
EXTT9=
EXTT10=
EXTT11=
EXTT12=
EXTT13=
EXTT14=
EXTT15=
EXTT16=
PLAYORDER=
